<svg width="161" height="62" viewBox="0 0 161 62" fill="none" xmlns="http://www.w3.org/2000/svg">
<path d="M60.196 27.432C60.196 28.704 59.896 29.904 59.296 31.032C58.696 32.16 57.736 33.084 56.416 33.804C55.096 34.5 53.404 34.848 51.34 34.848H46.804V45H42.7V19.98H51.34C53.26 19.98 54.88 20.316 56.2 20.988C57.544 21.636 58.54 22.524 59.188 23.652C59.86 24.78 60.196 26.04 60.196 27.432ZM51.34 31.5C52.9 31.5 54.064 31.152 54.832 30.456C55.6 29.736 55.984 28.728 55.984 27.432C55.984 24.696 54.436 23.328 51.34 23.328H46.804V31.5H51.34ZM68.2142 18.36V45H64.1102V18.36H68.2142ZM91.5663 25.164V45H87.4623V42.66C86.8143 43.476 85.9623 44.124 84.9063 44.604C83.8743 45.06 82.7703 45.288 81.5943 45.288C80.0343 45.288 78.6303 44.964 77.3823 44.316C76.1583 43.668 75.1863 42.708 74.4663 41.436C73.7703 40.164 73.4223 38.628 73.4223 36.828V25.164H77.4903V36.216C77.4903 37.992 77.9343 39.36 78.8223 40.32C79.7103 41.256 80.9223 41.724 82.4583 41.724C83.9943 41.724 85.2063 41.256 86.0943 40.32C87.0063 39.36 87.4623 37.992 87.4623 36.216V25.164H91.5663ZM120.993 24.84C122.553 24.84 123.945 25.164 125.169 25.812C126.417 26.46 127.389 27.42 128.085 28.692C128.805 29.964 129.165 31.5 129.165 33.3V45H125.097V33.912C125.097 32.136 124.653 30.78 123.765 29.844C122.877 28.884 121.665 28.404 120.129 28.404C118.593 28.404 117.369 28.884 116.457 29.844C115.569 30.78 115.125 32.136 115.125 33.912V45H111.057V33.912C111.057 32.136 110.613 30.78 109.725 29.844C108.837 28.884 107.625 28.404 106.089 28.404C104.553 28.404 103.329 28.884 102.417 29.844C101.529 30.78 101.085 32.136 101.085 33.912V45H96.9813V25.164H101.085V27.432C101.757 26.616 102.609 25.98 103.641 25.524C104.673 25.068 105.777 24.84 106.953 24.84C108.537 24.84 109.953 25.176 111.201 25.848C112.449 26.52 113.409 27.492 114.081 28.764C114.681 27.564 115.617 26.616 116.889 25.92C118.161 25.2 119.529 24.84 120.993 24.84ZM141.588 45.324C140.028 45.324 138.624 45.048 137.376 44.496C136.152 43.92 135.18 43.152 134.46 42.192C133.74 41.208 133.356 40.116 133.308 38.916H137.556C137.628 39.756 138.024 40.464 138.744 41.04C139.488 41.592 140.412 41.868 141.516 41.868C142.668 41.868 143.556 41.652 144.18 41.22C144.828 40.764 145.152 40.188 145.152 39.492C145.152 38.748 144.792 38.196 144.072 37.836C143.376 37.476 142.26 37.08 140.724 36.648C139.236 36.24 138.024 35.844 137.088 35.46C136.152 35.076 135.336 34.488 134.64 33.696C133.968 32.904 133.632 31.86 133.632 30.564C133.632 29.508 133.944 28.548 134.568 27.684C135.192 26.796 136.08 26.1 137.232 25.596C138.408 25.092 139.752 24.84 141.264 24.84C143.52 24.84 145.332 25.416 146.7 26.568C148.092 27.696 148.836 29.244 148.932 31.212H144.828C144.756 30.324 144.396 29.616 143.748 29.088C143.1 28.56 142.224 28.296 141.12 28.296C140.04 28.296 139.212 28.5 138.636 28.908C138.06 29.316 137.772 29.856 137.772 30.528C137.772 31.056 137.964 31.5 138.348 31.86C138.732 32.22 139.2 32.508 139.752 32.724C140.304 32.916 141.12 33.168 142.2 33.48C143.64 33.864 144.816 34.26 145.728 34.668C146.664 35.052 147.468 35.628 148.14 36.396C148.812 37.164 149.16 38.184 149.184 39.456C149.184 40.584 148.872 41.592 148.248 42.48C147.624 43.368 146.736 44.064 145.584 44.568C144.456 45.072 143.124 45.324 141.588 45.324Z" fill="#4E1E4F"/>
<path fillRule="evenodd" clipRule="evenodd" d="M0.0265484 0.809816C0.224326 3.3015 0.852005 5.51794 1.97916 7.70552C3.9905 11.6091 7.12809 14.0282 10.6969 14.4267C12.428 14.62 14.1214 14.3581 15.8073 13.6364C16.2912 13.4293 16.7178 13.2787 16.7553 13.3018C16.9354 13.4124 17.6101 15.6986 17.6645 16.3821L17.691 16.7153L15.7171 17.2819C13.6755 17.8679 12.554 18.2803 11.3154 18.9007C6.57907 21.273 3.36469 25.5549 2.57644 30.5415C2.36011 31.9103 2.36396 34.2975 2.58463 35.5828C3.09082 38.5317 4.60564 41.4042 6.83488 43.6419C8.59742 45.4112 10.6135 46.6379 12.9538 47.3647C14.4795 47.8386 15.5583 48 17.2007 48C21.0489 48 24.4997 46.6646 27.1855 44.136C30.0622 41.4275 31.6583 38.0611 31.9151 34.1595C31.9898 33.0255 31.8071 31.2131 31.5639 30.6748C31.2022 29.8742 30.5007 29.5635 29.7546 29.8736C29.0108 30.1827 28.8894 30.6988 29.0941 32.6828C29.4222 35.8629 28.163 39.1648 25.6539 41.704C24.7697 42.5988 23.1391 43.803 22.4606 44.0622C22.3342 44.1105 21.9803 44.2644 21.674 44.4043C20.0603 45.1412 17.2405 45.4533 15.2769 45.1121C14.1131 44.9099 12.7567 44.4645 11.9175 44.0087C8.28259 42.0349 6.09983 39.1192 5.3629 35.253C5.15979 34.1872 5.15742 31.9388 5.35836 30.7967C5.92159 27.5939 7.72054 24.7513 10.4845 22.6967C11.5297 21.9197 13.6094 20.8464 15.017 20.3574C15.9829 20.0219 19.6509 18.9637 19.7027 19.0057C19.8464 19.1224 18.3053 21.5759 17.5159 22.4875C17.1326 22.9301 17.1002 22.9456 16.43 23.0075C11.537 23.4598 7.74719 26.8352 6.93575 31.4635C6.64776 33.1059 6.78889 35.249 7.27791 36.6603C8.50524 40.2029 11.5473 42.8718 15.2237 43.6314C16.2942 43.8527 18.2311 43.855 19.3194 43.6364C22.9274 42.9118 25.9428 40.2738 27.1133 36.8177C27.6 35.3809 27.7492 33.117 27.4643 31.4922C26.9137 28.3518 24.6049 25.5411 21.355 24.0548C20.8759 23.8357 20.4181 23.6564 20.3376 23.6564C20.2236 23.6564 20.2378 23.5966 20.4015 23.3865C21.388 22.1207 22.2841 20.3481 22.9409 18.3624C23.3677 17.0726 23.7605 15.4373 23.7605 14.9504C23.7605 14.8168 23.7937 14.7246 23.8345 14.7454C25.4333 15.5621 26.281 15.7993 27.6114 15.802C30.4015 15.8076 32.7874 14.002 34.1269 10.8711C34.2916 10.4864 34.5125 9.84373 34.6181 9.44295C34.8211 8.672 35.0753 6.60761 34.979 6.5118C34.9477 6.48069 34.7347 6.61467 34.5057 6.80962C34.2768 7.00456 33.8416 7.25949 33.5387 7.3761C33.058 7.56123 32.8317 7.584 31.7545 7.55563C28.6994 7.47524 28.0099 7.51038 27.1499 7.79004C26.707 7.93404 26.0756 8.23058 25.7467 8.44908C25.1586 8.83966 23.9649 10.0348 23.9506 10.2474C23.9465 10.307 23.81 9.58282 23.6471 8.63804C23.4842 7.69325 23.2821 6.77585 23.1981 6.59926C22.8513 5.87102 21.8396 5.57134 21.196 6.00648C20.5472 6.44506 20.4933 6.77811 20.7939 8.4908C21.2351 11.0031 21.2473 13.0883 20.8337 15.2352C20.6802 16.0323 20.5037 16.3039 20.5037 15.7431C20.5037 14.7238 19.5235 11.4356 18.6413 9.49526C17.1829 6.288 14.6719 3.75951 11.8133 2.61968C10.1538 1.95799 9.43047 1.84775 6.19339 1.76373C3.68416 1.69855 3.19662 1.66076 2.66378 1.49065C1.94067 1.25968 1.08215 0.799509 0.502044 0.331681C0.275744 0.1493 0.0617806 0 0.026449 0C-0.00888254 0 -0.00878315 0.364466 0.0265484 0.809816ZM8.22081 6.23892C10.8937 6.71087 13.3992 8.22164 14.8546 10.2391L15.1762 10.6851L14.6156 10.7546C13.8906 10.8448 12.6518 10.7558 11.7185 10.5466C10.2709 10.2221 8.89063 9.42989 7.72311 8.25325C7.07214 7.59725 6.0947 6.28722 6.0947 6.07077C6.0947 5.95514 7.03503 6.02954 8.22081 6.23892ZM31.0243 10.5293C31.1646 10.669 30.1704 11.7695 29.4764 12.2428C28.7406 12.7446 27.9579 12.9572 26.8478 12.9565C26.3168 12.9562 25.7101 12.9084 25.4996 12.8503L25.117 12.7446L25.549 12.3034C26.525 11.3066 27.5699 10.7075 28.6951 10.4994C29.1994 10.4062 30.9226 10.4283 31.0243 10.5293ZM13.6791 26.5548C14.2944 27.0697 14.173 27.7005 13.3592 28.2183C13.0636 28.4064 12.6073 28.811 12.3449 29.1174C11.4314 30.1849 11.3714 30.2331 10.9566 30.2331C10.1647 30.2331 9.68608 29.2474 10.1307 28.532C10.369 28.1485 11.8115 26.7666 12.2629 26.4893C12.6983 26.2219 13.3155 26.2504 13.6791 26.5548Z" fill="#4E1E4F"/>
</svg>
